<?xml version="1.0" encoding="UTF-8"?>
<svg id="Camada_2" data-name="Camada 2" xmlns="http://www.w3.org/2000/svg" viewBox="0 0 845.88 845.88">
  <defs>
    <style>
      .cls-1 {
        fill: #1d1d1b;
        stroke-width: 0px;
      }
    </style>
  </defs>
  <g id="Objects">
    <path class="cls-1" d="M812.62,258.3c-21.3-50.37-51.79-95.59-90.62-134.42-38.83-38.83-84.05-69.32-134.42-90.62C535.41,11.19,480.02,0,422.94,0s-112.47,11.19-164.64,33.25c-50.37,21.3-95.59,51.79-134.42,90.62-38.83,38.83-69.32,84.05-90.62,134.42C11.19,310.47,0,365.86,0,422.94s11.19,112.47,33.25,164.64c21.3,50.37,51.79,95.59,90.62,134.42,38.83,38.83,84.05,69.32,134.42,90.62,52.17,22.07,107.56,33.25,164.64,33.25s112.47-11.19,164.64-33.26c50.37-21.3,95.59-51.79,134.42-90.62,38.83-38.83,69.32-84.05,90.62-134.42,22.07-52.17,33.26-107.56,33.26-164.64s-11.19-112.47-33.26-164.64ZM422.94,758.56c-89.65,0-173.93-34.91-237.32-98.3-63.39-63.39-98.3-147.67-98.3-237.32,0-74.93,24.4-146.09,69.42-204.46l470.66,470.66c-58.37,45.02-129.53,69.42-204.46,69.42ZM689.14,627.4L218.48,156.74c58.37-45.02,129.53-69.42,204.46-69.42,89.65,0,173.93,34.91,237.32,98.3,63.39,63.39,98.3,147.67,98.3,237.32,0,74.93-24.4,146.09-69.42,204.46Z"/>
  </g>
</svg>