<?xml version="1.0" encoding="UTF-8"?>
<svg id="Camada_2" data-name="Camada 2" xmlns="http://www.w3.org/2000/svg" viewBox="0 0 513 513">
  <defs>
    <style>
      .cls-1 {
        stroke: #000;
        stroke-miterlimit: 10;
        stroke-width: 13px;
      }
    </style>
  </defs>
  <g id="Layer_1" data-name="Layer 1">
    <path class="cls-1" d="M457.95,91.18h-118.96v-36.69c0-26.46-16.97-48-37.83-48h-89.31c-20.86,0-37.83,21.53-37.83,48v36.69H55.05c-26.77,0-48.55,27.63-48.55,61.59v292.13c0,33.96,21.78,61.59,48.55,61.59h402.9c26.77,0,48.55-27.63,48.55-61.59V152.78c0-33.96-21.78-61.59-48.55-61.59ZM183.33,114.83h214.35v368.02H108.26V114.83h75.08ZM192.65,54.5c0-13.42,8.61-24.35,19.19-24.35h89.31c10.58,0,19.19,10.92,19.19,24.35v36.69h-127.69v-36.69ZM25.14,444.91V152.78c0-20.92,13.42-37.94,29.91-37.94h34.57v368.02h-34.57c-16.49,0-29.91-17.02-29.91-37.94ZM487.86,444.91c0,20.92-13.42,37.94-29.91,37.94h-41.63V114.83h41.63c16.49,0,29.91,17.02,29.91,37.94v292.13Z"/>
  </g>
</svg>