<?xml version="1.0" encoding="UTF-8"?>
<svg id="Camada_2" data-name="Camada 2" xmlns="http://www.w3.org/2000/svg" viewBox="0 0 112.07 112.07">
  <defs>
    <style>
      .cls-1 {
        fill: #231f20;
        stroke-width: 0px;
      }
    </style>
  </defs>
  <g id="Layer_1" data-name="Layer 1">
    <g>
      <path class="cls-1" d="M56.04,0C25.08,0,0,25.08,0,56.04s25.08,56.04,56.04,56.04,56.04-25.09,56.04-56.04S86.99,0,56.04,0ZM60.26,103.42v-3.77c0-2.34-1.89-4.23-4.23-4.23s-4.23,1.89-4.23,4.23v3.77c-22.91-2.03-41.19-20.36-43.16-43.28h3.64c2.34,0,4.23-1.89,4.23-4.23s-1.89-4.23-4.23-4.23h-3.62C10.75,28.87,28.99,10.68,51.81,8.66v3.5c0,2.34,1.89,4.23,4.23,4.23s4.23-1.89,4.23-4.23v-3.5c22.82,2.02,41.06,20.22,43.14,43.02h-3.62c-2.34,0-4.23,1.89-4.23,4.23s1.89,4.23,4.23,4.23h3.64c-1.97,22.93-20.25,41.25-43.16,43.28Z"/>
      <path class="cls-1" d="M81.23,28.74l-25.05,26.25s-.09,0-.14,0c-.31,0-.62.03-.92.09l-20.96-15.84c-1.39-1.04-3.38-.78-4.44.63-1.06,1.39-.78,3.39.62,4.44l20.96,15.84c.2,2.44,2.25,4.36,4.74,4.36,2.63,0,4.76-2.13,4.76-4.76,0-.13,0-.25-.02-.37l25.05-26.25c1.21-1.27,1.16-3.27-.11-4.49-1.26-1.21-3.27-1.16-4.49.11Z"/>
    </g>
  </g>
</svg>